<svg width="200" height="60" viewBox="0 0 200 60" fill="none" xmlns="http://www.w3.org/2000/svg">
<path fill-rule="evenodd" clip-rule="evenodd" d="M82.6497 42.0464C76.7065 46.4456 68.0922 48.7927 60.6754 48.7927C50.2758 48.7927 40.9136 44.93 33.8307 38.5056C33.2742 38.0004 33.7728 37.3119 34.4406 37.7053C42.0844 42.1716 51.5357 44.8585 61.2986 44.8585C67.8829 44.8585 75.1261 43.4904 81.786 40.6515C82.7922 40.2223 83.6336 41.3132 82.6497 42.0464Z" fill="#FF9900"/>
<path fill-rule="evenodd" clip-rule="evenodd" d="M85.1203 39.2077C84.3634 38.2331 80.0986 38.7473 78.1843 38.9753C77.6011 39.0468 77.512 38.5371 78.0374 38.1705C81.4341 35.7698 87.0078 36.4627 87.6578 37.2675C88.3078 38.0767 87.4886 43.6874 84.2967 46.3654C83.807 46.7767 83.3395 46.5576 83.5577 46.0122C84.2744 44.215 85.8815 40.1868 85.1203 39.2077Z" fill="#FF9900"/>
<path fill-rule="evenodd" clip-rule="evenodd" d="M78.3177 21.2217V18.888C78.3177 18.5348 78.5848 18.2979 78.9053 18.2979H89.3093C89.6432 18.2979 89.9103 18.5393 89.9103 18.888V20.8864C89.9059 21.2217 89.6254 21.6598 89.1268 22.3528L83.7356 30.0827C85.7389 30.0335 87.8535 30.333 89.6699 31.3613C90.0795 31.5938 90.1908 31.9336 90.2219 32.2689V34.759C90.2219 35.0988 89.848 35.4967 89.4562 35.2911C86.2553 33.6056 82.0038 33.4223 78.4646 35.3089C78.104 35.5057 77.7256 35.1122 77.7256 34.7725V32.4074C77.7256 32.0274 77.73 31.3792 78.1084 30.8025L84.3544 21.8074H78.9187C78.5848 21.8074 78.3177 21.5704 78.3177 21.2217Z" fill="white"/>
<path fill-rule="evenodd" clip-rule="evenodd" d="M40.3664 35.7826H37.2011C36.8984 35.7602 36.658 35.5322 36.6357 35.2416V18.928C36.6357 18.6016 36.9073 18.3423 37.2456 18.3423H40.1972C40.5044 18.3557 40.7493 18.5927 40.7715 18.8877V21.0203H40.8294C41.5996 18.9593 43.0464 17.998 44.9963 17.998C46.9774 17.998 48.215 18.9593 49.1054 21.0203C49.8711 18.9593 51.6118 17.998 53.4771 17.998C54.8037 17.998 56.255 18.5479 57.141 19.7819C58.1426 21.1544 57.9378 23.1483 57.9378 24.8964L57.9334 35.1924C57.9334 35.5188 57.6618 35.7826 57.3235 35.7826H54.1627C53.8466 35.7602 53.5928 35.5054 53.5928 35.1924V26.5461C53.5928 25.8576 53.6552 24.1408 53.5038 23.4881C53.2679 22.3928 52.56 22.0843 51.6429 22.0843C50.8772 22.0843 50.0759 22.5984 49.7509 23.421C49.4259 24.2437 49.4571 25.6206 49.4571 26.5461V35.1924C49.4571 35.5188 49.1855 35.7826 48.8472 35.7826H45.6864C45.3658 35.7602 45.1165 35.5054 45.1165 35.1924L45.1121 26.5461C45.1121 24.7265 45.4103 22.0485 43.1622 22.0485C40.8873 22.0485 40.9763 24.6594 40.9763 26.5461V35.1924C40.9763 35.5188 40.7047 35.7826 40.3664 35.7826Z" fill="white"/>
<path fill-rule="evenodd" clip-rule="evenodd" d="M98.8681 17.998C103.565 17.998 106.107 22.0485 106.107 27.1988C106.107 32.1747 103.298 36.1223 98.8681 36.1223C94.256 36.1223 91.7451 32.0719 91.7451 27.0244C91.7451 21.9457 94.2871 17.998 98.8681 17.998ZM98.8948 21.3287C96.562 21.3287 96.4151 24.5208 96.4151 26.5103C96.4151 28.5042 96.3839 32.7604 98.8681 32.7604C101.321 32.7604 101.437 29.3269 101.437 27.2346C101.437 25.8576 101.379 24.2124 100.965 22.9069C100.609 21.7713 99.9009 21.3287 98.8948 21.3287Z" fill="white"/>
<path fill-rule="evenodd" clip-rule="evenodd" d="M112.197 35.7826H109.045C108.729 35.7602 108.475 35.5054 108.475 35.1924L108.471 18.8743C108.497 18.5748 108.76 18.3423 109.081 18.3423H112.014C112.29 18.3557 112.517 18.5435 112.58 18.7983V21.293H112.638C113.524 19.0621 114.766 17.998 116.951 17.998C118.372 17.998 119.756 18.5122 120.647 19.9205C121.475 21.2259 121.475 23.421 121.475 24.9992V35.2684C121.439 35.5546 121.176 35.7826 120.865 35.7826H117.69C117.401 35.7602 117.161 35.5456 117.13 35.2684V26.4075C117.13 24.6237 117.334 22.0128 115.148 22.0128C114.378 22.0128 113.67 22.5314 113.319 23.3182C112.874 24.3152 112.816 25.3077 112.816 26.4075V35.1924C112.811 35.5188 112.535 35.7826 112.197 35.7826Z" fill="white"/>
<path fill-rule="evenodd" clip-rule="evenodd" d="M123.456 34.4862C123.456 33.6636 124.155 33.002 125.014 33.002C125.873 33.002 126.572 33.6636 126.572 34.4862C126.572 35.3044 125.873 35.975 125.014 35.975C124.155 35.975 123.456 35.3044 123.456 34.4862Z" fill="white"/>
<path fill-rule="evenodd" clip-rule="evenodd" d="M156.992 35.7877C156.663 35.7743 156.404 35.5195 156.404 35.1976V18.884C156.422 18.5934 156.667 18.3653 156.97 18.3475H158.132C158.452 18.3475 158.71 18.5799 158.737 18.884V21.2624C159.565 19.3757 161.105 17.9004 163.051 17.9004H163.171H163.287C165.353 17.9004 166.862 19.4294 167.423 21.6513C168.3 19.4562 169.947 17.9004 172.119 17.9004H172.231H172.36C173.896 17.9004 175.374 18.8929 176.139 20.404C176.878 21.848 176.852 23.7705 176.852 25.3844L176.847 35.1976C176.852 35.5106 176.598 35.7654 176.282 35.7877H174.893C174.59 35.7743 174.345 35.5597 174.305 35.2781V25.3844C174.305 24.2175 174.363 22.9791 173.891 21.9151C173.41 20.8287 172.489 20.1492 171.501 20.1C170.396 20.1536 169.381 20.9628 168.723 22.0537C167.868 23.462 167.899 24.7317 167.899 26.3769V35.287C167.859 35.5553 167.623 35.7654 167.334 35.7877H165.954C165.624 35.7743 165.361 35.5195 165.361 35.1976L165.353 24.7317C165.353 23.7705 165.295 22.6394 164.854 21.7765C164.342 20.793 163.425 20.1492 162.463 20.1C161.466 20.1581 160.46 20.9226 159.863 21.8123C159.093 22.9478 158.946 24.3516 158.946 25.7957V35.1976C158.946 35.5106 158.693 35.7654 158.376 35.7877H156.992Z" fill="white"/>
<path fill-rule="evenodd" clip-rule="evenodd" d="M147.455 36.1275C142.963 36.1275 140.951 31.5271 140.951 26.9268C140.951 22.0895 143.315 17.9004 147.838 17.9004H147.954H148.079C152.477 17.9004 154.667 22.3622 154.667 26.9626C154.667 31.8356 152.241 36.1275 147.691 36.1275H147.576H147.455ZM147.785 33.8966C149.263 33.8475 150.429 32.9265 151.119 31.393C151.738 30.0161 151.858 28.4379 151.858 26.9268C151.858 25.2815 151.68 23.5648 150.91 22.1565C150.22 20.9271 149.036 20.1447 147.78 20.1C146.382 20.1492 145.131 21.1014 144.504 22.5678C143.938 23.8375 143.765 25.523 143.765 26.9268C143.765 28.5049 143.97 30.329 144.62 31.7015C145.252 33.0025 146.467 33.8475 147.785 33.8966Z" fill="white"/>
<path fill-rule="evenodd" clip-rule="evenodd" d="M133.419 33.8251C135.436 33.7625 136.495 32.1396 136.931 30.0384C137.02 29.7746 137.221 29.5734 137.515 29.5734L138.846 29.569C139.162 29.5824 139.451 29.8238 139.424 30.1189C138.81 33.6999 136.66 36.1275 133.597 36.1275H133.472H133.357C128.896 36.1275 126.973 31.63 126.973 27.0654C126.973 22.5365 128.923 17.9004 133.383 17.9004H133.504H133.624C136.722 17.9004 138.93 20.2967 139.411 23.8777C139.411 24.146 139.162 24.3785 138.868 24.4098L137.475 24.3919C137.181 24.3516 136.989 24.1013 136.945 23.8196C136.611 21.8212 135.467 20.2296 133.561 20.167C130.53 20.2654 129.666 24.0119 129.666 26.8955C129.666 29.6718 130.387 33.7267 133.419 33.8251Z" fill="white"/>
<path fill-rule="evenodd" clip-rule="evenodd" d="M70.0239 27.9903C70.0239 29.2287 70.0551 30.2615 69.4318 31.3613C68.9287 32.2554 68.1274 32.8053 67.2415 32.8053C66.0261 32.8053 65.3138 31.8754 65.3138 30.5029C65.3138 27.7936 67.7312 27.3018 70.0239 27.3018V27.9903ZM73.2159 35.7381C73.0066 35.9259 72.7039 35.9393 72.468 35.8141C71.4173 34.9378 71.2259 34.531 70.6516 33.695C68.9154 35.4743 67.6822 36.0063 65.434 36.0063C62.7674 36.0063 60.6973 34.3566 60.6973 31.0528C60.6973 28.4732 62.0862 26.7162 64.0718 25.8578C65.7902 25.0978 68.1897 24.9637 70.0239 24.7535V24.3422C70.0239 23.5867 70.0818 22.6925 69.6366 22.0398C69.2537 21.4541 68.5147 21.2127 67.8603 21.2127C66.6538 21.2127 65.5809 21.8342 65.3183 23.1217C65.2649 23.4078 65.0556 23.6895 64.7663 23.7029L61.6989 23.3721C61.4407 23.314 61.1514 23.1038 61.227 22.706C61.9304 18.9684 65.296 17.8418 68.3055 17.8418C69.8458 17.8418 71.8581 18.2531 73.0734 19.4244C74.6138 20.8685 74.4668 22.7954 74.4668 24.8921V29.8457C74.4668 31.3344 75.0812 31.9872 75.6599 32.7919C75.8603 33.078 75.9048 33.4223 75.6466 33.6369C75.0011 34.1778 73.8525 35.1837 73.2203 35.747L73.2159 35.7381Z" fill="white"/>
<path fill-rule="evenodd" clip-rule="evenodd" d="M28.5288 27.9903C28.5288 29.2287 28.5599 30.2615 27.9367 31.3613C27.4336 32.2554 26.6367 32.8053 25.7464 32.8053C24.531 32.8053 23.8232 31.8754 23.8232 30.5029C23.8232 27.7936 26.2405 27.3018 28.5288 27.3018V27.9903ZM31.7208 35.7381C31.5115 35.9259 31.2088 35.9393 30.9728 35.8141C29.9222 34.9378 29.7352 34.531 29.1565 33.695C27.4203 35.4743 26.1916 36.0063 23.9389 36.0063C21.2767 36.0063 19.2021 34.3566 19.2021 31.0528C19.2021 28.4732 20.5956 26.7162 22.5766 25.8578C24.2951 25.0978 26.6946 24.9637 28.5288 24.7535V24.3422C28.5288 23.5867 28.5866 22.6925 28.1459 22.0398C27.7586 21.4541 27.0196 21.2127 26.3696 21.2127C25.1632 21.2127 24.0858 21.8342 23.8232 23.1217C23.7697 23.4078 23.5605 23.6895 23.2756 23.7029L20.2038 23.3721C19.9456 23.314 19.6607 23.1038 19.7319 22.706C20.4398 18.9684 23.8009 17.8418 26.8104 17.8418C28.3507 17.8418 30.3629 18.2531 31.5783 19.4244C33.1186 20.8685 32.9717 22.7954 32.9717 24.8921V29.8457C32.9717 31.3344 33.5861 31.9872 34.1648 32.7919C34.3696 33.078 34.4141 33.4223 34.1559 33.6369C33.5104 34.1778 32.3618 35.1837 31.7297 35.747L31.7208 35.7381Z" fill="white"/>
<path fill-rule="evenodd" clip-rule="evenodd" d="M180.137 18.5212C180.898 18.5212 181.53 19.1381 181.53 19.916C181.53 20.6761 180.907 21.3154 180.137 21.3154C179.371 21.3154 178.748 20.6895 178.748 19.916C178.748 19.1292 179.38 18.5212 180.137 18.5212ZM180.141 18.2529C179.251 18.2529 178.48 18.9772 178.48 19.9205C178.48 20.8459 179.237 21.5836 180.141 21.5836C181.049 21.5836 181.797 20.837 181.797 19.9205C181.797 18.9772 181.036 18.2529 180.141 18.2529ZM179.518 20.8549H179.874V20.1038H180.203C180.332 20.1038 180.368 20.1575 180.395 20.2647C180.395 20.2916 180.457 20.7655 180.462 20.8549H180.858C180.809 20.7655 180.782 20.5106 180.764 20.3586C180.729 20.1217 180.711 19.9563 180.457 19.9384C180.586 19.8937 180.809 19.8221 180.809 19.4779C180.809 18.9861 180.377 18.9861 180.154 18.9861H179.518V20.8549ZM179.865 19.2857H180.163C180.261 19.2857 180.439 19.2857 180.439 19.5405C180.439 19.6388 180.395 19.8043 180.154 19.8043H179.865V19.2857Z" fill="white"/>
</svg>
