<svg width="200" height="60" viewBox="0 0 200 60" fill="none" xmlns="http://www.w3.org/2000/svg">
<path d="M75.6638 9.5918H42.7191C40.7076 9.5918 39.0771 11.2223 39.0771 13.2337V46.1634C39.0771 48.1901 40.7076 49.8206 42.7191 49.8206H75.6486C77.66 49.8206 79.2905 48.1901 79.2905 46.1787V13.2337C79.3057 11.2223 77.6752 9.5918 75.6638 9.5918Z" fill="#FF3366"/>
<path d="M95.5654 40.8148H99.4207V24.0224H95.5654V40.8148ZM109.63 30.8948C107.664 30.2548 105.836 29.7519 105.836 28.5329V28.4719C105.836 27.4814 106.689 26.7805 108.198 26.7805C108.929 26.7805 109.737 26.9481 110.59 27.2376C110.59 27.2376 110.605 27.2376 110.621 27.2528C110.697 27.2833 110.773 27.3138 110.834 27.329C111.444 27.5271 113.089 27.7862 114.476 25.6224C112.678 24.4643 110.392 23.7328 108.289 23.7328C104.952 23.7328 102.301 25.6681 102.301 28.8529V28.9138C102.301 32.1291 105.074 33.15 107.558 33.851C109.524 34.4605 111.306 34.9024 111.306 36.1977V36.2586C111.306 37.371 110.346 38.072 108.701 38.072C107.604 38.072 106.4 37.7824 105.196 37.2186C104.845 37.0662 103.047 36.4567 101.524 38.651C103.611 40.2815 106.247 41.1348 108.609 41.1348C112.114 41.1348 114.842 39.3824 114.842 35.8472V35.8015C114.842 32.7691 112.084 31.6567 109.63 30.8948ZM85.0664 36.3653L80.5407 24.0224H76.4111L83.314 40.952H86.7883L93.6607 24.0224H89.6226L85.0664 36.3653ZM132.731 23.6719C127.581 23.6719 123.756 27.649 123.756 32.4795C123.756 37.2796 127.535 41.1958 132.67 41.1958C137.851 41.1958 141.676 37.2186 141.676 32.4186C141.676 27.5881 137.882 23.6719 132.731 23.6719ZM132.731 37.8586C129.744 37.8586 127.611 35.4053 127.611 32.4186C127.611 29.4624 129.577 27.0395 132.67 27.0395C135.687 27.0395 137.821 29.4929 137.821 32.4795C137.821 35.451 135.84 37.8586 132.731 37.8586ZM153.089 23.6719C150.484 23.6719 148.914 25.0433 147.832 26.6281V24.0224H143.977V40.8301H147.832V31.3519C147.832 28.7462 149.386 27.1767 151.626 27.1767C153.912 27.1767 155.223 28.67 155.223 31.2757V40.8148H159.078V30.1176C159.078 26.2167 156.884 23.6719 153.089 23.6719ZM117.386 40.8148H121.242V24.0224H117.386V40.8148Z" fill="#FF3366"/>
<path d="M52.5167 22.2549C53.8577 22.2549 54.9701 21.2035 54.9701 19.832C54.9701 18.4606 53.8424 17.4092 52.5167 17.4092C51.1758 17.4092 50.0634 18.4606 50.0634 19.832C50.0634 21.2035 51.191 22.2549 52.5167 22.2549ZM47.4272 35.2226C47.2901 35.8321 47.2139 36.5026 47.2139 37.0359C47.2139 39.1693 48.372 40.5864 50.8253 40.5864C52.8672 40.5864 54.5129 39.3826 55.7015 37.4169L54.9701 40.3274H59.0234L61.3396 31.0474C61.9186 28.7007 63.031 27.4816 64.7377 27.4816C66.0786 27.4816 66.9015 28.3197 66.9015 29.6912C66.9015 30.0873 66.871 30.5293 66.7186 30.9864L65.5301 35.2531C65.3472 35.8626 65.271 36.4874 65.271 37.0664C65.271 39.0931 66.4596 40.5712 68.9586 40.5712C71.092 40.5712 72.7834 39.1998 73.7282 35.9083L72.1434 35.2988C71.351 37.5083 70.6653 37.9045 70.1167 37.9045C69.5682 37.9045 69.2786 37.5388 69.2786 36.8226C69.2786 36.5026 69.3548 36.1369 69.4615 35.695L70.6196 31.535C70.9091 30.5597 71.0158 29.6912 71.0158 28.8988C71.0158 25.7902 69.1415 24.1749 66.8558 24.1749C64.7224 24.1749 62.5586 26.0949 61.4767 28.1216L62.2691 24.4949H56.0824L55.2139 27.6949H58.1091L56.3262 34.8264C54.9243 37.935 52.3643 37.9807 52.0443 37.9198C51.511 37.7979 51.1758 37.5998 51.1758 36.914C51.1758 36.5179 51.252 35.954 51.4348 35.2531L54.1472 24.4949H47.2748L46.4062 27.6949H49.2558L47.4272 35.2226Z" fill="white"/>
</svg>
