<svg width="200" height="60" viewBox="0 0 200 60" fill="none" xmlns="http://www.w3.org/2000/svg">
<g clip-path="url(#clip0_637_974)">
<path d="M76.1937 32.5831L75.2281 35.2715H75.1476C74.9867 34.6653 74.6916 33.7428 74.2088 32.6358L69.0317 19.8529H63.9619V40.2265H67.3149V27.6544C67.3149 26.8637 67.3149 25.9676 67.2881 24.8606C67.2613 24.3072 67.2076 23.8854 67.1808 23.5692H67.2613C67.4222 24.3599 67.61 24.9397 67.7441 25.3087L73.9673 40.1738H76.3279L82.4974 25.1769C82.6315 24.8343 82.7657 24.149 82.8998 23.5692H82.9803C82.8998 25.0715 82.8461 26.4157 82.8193 27.2327V40.1475H86.3869V19.8002H81.5049L76.1937 32.5831ZM89.7668 25.5459H93.2539V40.1475H89.7668V25.5459ZM91.5372 19.3785C90.947 19.3785 90.4642 19.5893 90.0618 19.9583C89.6595 20.3273 89.4449 20.8017 89.4449 21.3816C89.4449 21.9351 89.6595 22.4095 90.0618 22.7785C90.4642 23.1475 90.947 23.332 91.5372 23.332C92.1273 23.332 92.637 23.1211 93.0125 22.7785C93.4149 22.4095 93.6295 21.9351 93.6295 21.3816C93.6295 20.8281 93.4149 20.3537 93.0125 19.9583C92.6638 19.5893 92.1541 19.3785 91.5372 19.3785ZM105.62 25.4141C104.976 25.2823 104.305 25.2033 103.662 25.2033C102.079 25.2033 100.631 25.5459 99.4235 26.2312C98.2164 26.9165 97.2507 27.8653 96.6338 29.0513C95.99 30.2637 95.6681 31.6606 95.6681 33.2684C95.6681 34.6653 95.99 35.9041 96.6069 37.0374C97.2239 38.1444 98.0823 39.0405 99.2357 39.6467C100.336 40.2529 101.623 40.5692 103.072 40.5692C104.735 40.5692 106.156 40.2265 107.283 39.594L107.31 39.5676V36.4048L107.176 36.5103C106.666 36.8792 106.076 37.1955 105.486 37.38C104.869 37.5909 104.305 37.6963 103.823 37.6963C102.428 37.6963 101.328 37.301 100.55 36.4312C99.7454 35.5878 99.343 34.4281 99.343 32.9785C99.343 31.4761 99.7454 30.2901 100.577 29.4203C101.408 28.5506 102.508 28.1025 103.849 28.1025C104.976 28.1025 106.13 28.4715 107.176 29.2095L107.31 29.3149V25.9676L107.283 25.9413C106.827 25.7568 106.317 25.5459 105.62 25.4141ZM117.127 25.3087C116.269 25.3087 115.464 25.5723 114.767 26.1258C114.177 26.6002 113.774 27.2854 113.426 28.1025H113.399V25.5459H109.912V40.1475H113.399V32.6885C113.399 31.4234 113.667 30.3692 114.257 29.6048C114.847 28.8141 115.598 28.4188 116.51 28.4188C116.832 28.4188 117.154 28.4979 117.557 28.5506C117.932 28.656 118.2 28.7614 118.388 28.8932L118.522 28.9986V25.5723L118.442 25.5459C118.2 25.3878 117.718 25.3087 117.127 25.3087ZM126.623 25.2296C124.182 25.2296 122.224 25.9413 120.856 27.3382C119.461 28.7351 118.791 30.6591 118.791 33.0839C118.791 35.3506 119.488 37.1955 120.829 38.5397C122.17 39.8575 123.994 40.5428 126.275 40.5428C128.662 40.5428 130.566 39.8312 131.934 38.4079C133.329 36.9847 134 35.087 134 32.7413C134 30.4219 133.356 28.5769 132.042 27.2327C130.781 25.8885 128.93 25.2296 126.623 25.2296ZM129.413 36.4575C128.769 37.2746 127.75 37.6699 126.489 37.6699C125.228 37.6699 124.209 37.2746 123.485 36.4048C122.761 35.5878 122.412 34.4017 122.412 32.8994C122.412 31.3444 122.787 30.1583 123.485 29.3149C124.209 28.4715 125.202 28.0498 126.462 28.0498C127.696 28.0498 128.662 28.4451 129.359 29.2622C130.057 30.0792 130.432 31.2653 130.432 32.8203C130.379 34.4017 130.084 35.6405 129.413 36.4575ZM141.779 31.6079C140.679 31.1599 139.982 30.8172 139.66 30.5273C139.392 30.2637 139.257 29.8948 139.257 29.4203C139.257 29.025 139.418 28.6296 139.821 28.3661C140.223 28.1025 140.679 27.9707 141.35 27.9707C141.94 27.9707 142.557 28.0761 143.147 28.2343C143.737 28.3924 144.274 28.6296 144.703 28.9459L144.837 29.0513V25.8358L144.756 25.8095C144.354 25.6513 143.818 25.4932 143.174 25.3614C142.53 25.256 141.94 25.2033 141.457 25.2033C139.794 25.2033 138.426 25.5986 137.353 26.4684C136.28 27.2854 135.77 28.3924 135.77 29.6839C135.77 30.3692 135.878 30.9754 136.119 31.4761C136.36 31.9769 136.709 32.4513 137.192 32.8467C137.675 33.2157 138.372 33.6374 139.338 34.0327C140.143 34.3754 140.76 34.6389 141.135 34.8498C141.511 35.0606 141.752 35.2979 141.94 35.4823C142.074 35.6932 142.154 35.9568 142.154 36.2994C142.154 37.2746 141.403 37.749 139.874 37.749C139.284 37.749 138.667 37.6436 137.943 37.4064C137.219 37.1692 136.548 36.8265 135.985 36.4312L135.851 36.3258V39.673L135.931 39.6994C136.441 39.9366 137.058 40.0948 137.809 40.2792C138.56 40.411 139.231 40.5165 139.821 40.5165C141.618 40.5165 143.093 40.1211 144.139 39.2513C145.212 38.4079 145.776 37.3273 145.776 35.9304C145.776 34.9552 145.507 34.0854 144.917 33.4265C144.139 32.794 143.174 32.1351 141.779 31.6079ZM154.976 25.2296C152.535 25.2296 150.577 25.9413 149.209 27.3382C147.841 28.7351 147.144 30.6591 147.144 33.0839C147.144 35.3506 147.841 37.1955 149.182 38.5397C150.524 39.8575 152.348 40.5428 154.628 40.5428C157.015 40.5428 158.92 39.8312 160.288 38.4079C161.682 36.9847 162.353 35.087 162.353 32.7413C162.353 30.4219 161.709 28.5769 160.395 27.2327C159.134 25.8885 157.283 25.2296 154.976 25.2296ZM157.739 36.4575C157.095 37.2746 156.076 37.6699 154.815 37.6699C153.528 37.6699 152.535 37.2746 151.811 36.4048C151.087 35.5878 150.738 34.4017 150.738 32.8994C150.738 31.3444 151.114 30.1583 151.811 29.3149C152.535 28.4715 153.528 28.0498 154.789 28.0498C155.996 28.0498 156.988 28.4451 157.686 29.2622C158.383 30.0792 158.759 31.2653 158.759 32.8203C158.759 34.4017 158.41 35.6405 157.739 36.4575ZM180.996 28.3661V25.5459H177.482V21.2234L177.375 21.2498L174.048 22.225L173.968 22.2513V25.5459H168.71V23.701C168.71 22.8575 168.925 22.1986 169.3 21.7769C169.676 21.3552 170.239 21.1444 170.937 21.1444C171.42 21.1444 171.929 21.2498 172.493 21.487L172.627 21.5661V18.5878L172.546 18.5614C172.063 18.4033 171.42 18.2979 170.588 18.2979C169.542 18.2979 168.63 18.5351 167.798 18.9304C166.967 19.3785 166.35 19.9847 165.894 20.8017C165.438 21.5924 165.196 22.4885 165.196 23.5165V25.5459H162.755V28.3397H165.196V40.1475H168.71V28.3661H173.968V35.8777C173.968 38.9614 175.443 40.5165 178.394 40.5165C178.877 40.5165 179.386 40.4374 179.869 40.3583C180.379 40.2529 180.754 40.1211 180.969 40.0157L180.996 39.9893V37.1692L180.862 37.2746C180.647 37.4064 180.459 37.5118 180.137 37.5909C179.869 37.6699 179.628 37.6963 179.44 37.6963C178.743 37.6963 178.26 37.5382 177.911 37.1428C177.589 36.7738 177.428 36.1676 177.428 35.2715V28.3661H180.996Z" fill="#737373"/>
<path d="M19.0049 13H35.4481V29.1566H19.0049V13Z" fill="#F25022"/>
<path d="M37.1641 13H53.6073V29.1566H37.1641V13Z" fill="#7FBA00"/>
<path d="M19.0049 30.8433H35.4481V46.9999H19.0049V30.8433Z" fill="#00A4EF"/>
<path d="M37.1641 30.8433H53.6073V46.9999H37.1641V30.8433Z" fill="#FFB900"/>
</g>
<defs>
<clipPath id="clip0_637_974">
<rect width="162" height="34" fill="white" transform="translate(19 13)"/>
</clipPath>
</defs>
</svg>
