<svg width="200" height="60" viewBox="0 0 200 60" fill="none" xmlns="http://www.w3.org/2000/svg">
<g clip-path="url(#clip0_637_976)">
<path d="M59.427 20.3867H50.8265L47.418 39.3376H52.693L54.8425 24.5847H55.3722L57.5632 39.3376H62.8355L59.427 20.3867Z" fill="#074CA1"/>
<path d="M84.3386 39.3372L84.0973 25.0652H83.6092L81.1353 39.3372H75.9823L73.5084 25.0652H73.0202L72.7762 39.3372H67.8672L68.6382 20.3862H76.8753L78.3341 30.862H78.7807L80.2007 20.3862H88.4378L89.2476 39.3372H84.3386Z" fill="#074CA1"/>
<path d="M114.566 35.1802L114.524 20.3862H119.922V34.8987V34.9807V35.0599L119.96 35.1392V35.2185V35.3004V35.3797L120.002 35.4207L120.044 35.5V35.5792L120.082 35.6585L120.124 35.6995L120.163 35.7787L120.204 35.8197L120.246 35.899L120.285 35.94L120.326 35.9782L120.368 36.0602L120.448 36.0985L120.487 36.1395L120.571 36.1805L120.609 36.2188L120.693 36.2597L120.731 36.298L120.812 36.339L120.895 36.38H120.934L121.017 36.4183H121.097H121.178L121.258 36.4593H121.342H121.422H121.502H121.544L121.624 36.4183H121.705H121.788L121.868 36.38H121.949L121.991 36.339L122.071 36.298L122.151 36.2597L122.193 36.2188L122.273 36.1805L122.315 36.1395L122.354 36.0985L122.437 36.0602L122.476 35.9782L122.517 35.94L122.556 35.899L122.598 35.8197L122.639 35.7787L122.678 35.6995L122.72 35.6585L122.762 35.5792L122.8 35.5V35.4207L122.842 35.3797V35.3004V35.2185L122.884 35.1392V35.0599V34.9807V34.8987V20.3862H128.278V35.2595V35.5792L128.236 35.8607L128.197 36.1805L128.117 36.4593L128.034 36.738L127.953 37.0195L127.831 37.26L127.671 37.4978L127.548 37.7383L127.385 37.9788L127.182 38.1783L127.022 38.3779L126.816 38.5774L126.575 38.7769L126.373 38.9381L126.128 39.0966L125.884 39.2579L125.64 39.4164L125.357 39.5367L125.072 39.6979L124.789 39.7772L124.506 39.8974L124.22 39.9767L123.937 40.0969L123.613 40.1379L123.327 40.2172L122.678 40.3375L122.029 40.3784H121.422H120.773L120.124 40.2964L119.514 40.2172L119.189 40.1379L118.865 40.0587L118.582 39.9767L118.296 39.8974L118.013 39.7772L117.731 39.6569L117.445 39.5367L117.204 39.3782L116.918 39.2579L116.674 39.0966L116.433 38.8971L116.227 38.7386L116.025 38.5391L115.822 38.3369L115.62 38.1373L115.456 37.8996L115.295 37.6973L115.132 37.4596L115.013 37.1781L114.891 36.9375L114.768 36.6588L114.688 36.38L114.646 36.0985L114.566 35.7787V35.5V35.1802Z" fill="#074CA1"/>
<path d="M151.201 20.3862H146.536V32.2613H146.414L140.978 20.3862H135.218V39.3372H139.883V28.2629H140.005L145.116 39.3372H151.201V20.3862Z" fill="#074CA1"/>
<path d="M94.9688 35.6202V33.1004H100.366L100.324 34.2209V34.4997V34.7402V34.8605L100.366 34.9807V35.101L100.405 35.2185L100.446 35.3005V35.3387L100.488 35.4207L100.527 35.459V35.5L100.568 35.5382V35.5792L100.607 35.6202L100.649 35.6585L100.69 35.6995L100.729 35.7405L100.771 35.7787L100.812 35.8198L100.851 35.8607L100.893 35.899L100.932 35.94H100.973L101.015 35.9783L101.095 36.0193H101.137L101.176 36.0603L101.256 36.0985H101.339L101.461 36.1395L101.622 36.1805H101.786H101.947H101.988H102.027H102.069H102.11H102.149H102.191H102.232H102.271L102.313 36.1395L102.393 36.0985L102.474 36.0603L102.557 36.0193L102.637 35.9783L102.718 35.94L102.798 35.8607L102.881 35.8198L102.92 35.7405L103.003 35.6585L103.042 35.5792L103.123 35.5L103.164 35.4207L103.206 35.3005L103.245 35.2185L103.286 35.101L103.328 35.019V34.8987V34.7812V34.6609V34.5407V34.4204V34.2592L103.286 34.1389L103.245 34.0214L103.206 33.8602L103.123 33.7016L103.042 33.5814L103.003 33.4994L102.962 33.4201L102.92 33.3409L102.881 33.2999L102.84 33.2206L102.798 33.1796L102.676 33.0621L102.557 32.9419L102.435 32.8216L102.271 32.7396L102.149 32.6221L101.825 32.4608L101.5 32.2613L100.729 31.9006L99.8777 31.5015L98.9459 31.0205L98.4161 30.7418L97.9308 30.422L97.4427 30.0612L96.9157 29.6212L96.8353 29.5829L96.7548 29.5419L96.7132 29.4627L96.6328 29.3834L96.5524 29.3424L96.5108 29.2632L96.3471 29.1019L96.2667 28.9817L96.1447 28.7822L96.0227 28.6236L95.9422 28.4624L95.8618 28.2629L95.7814 28.0634L95.6982 27.8639L95.6593 27.6643L95.5373 27.2243L95.4569 26.7843L95.3737 26.3033L95.3348 25.8633L95.2932 25.4233V24.986V24.5459L95.3348 24.1442L95.3737 23.7452L95.4153 23.4254L95.4957 23.1466L95.5373 22.9061L95.6177 22.6656L95.7398 22.4251L95.8618 22.2256L95.9838 21.9851L96.1059 21.7856L96.2667 21.5861L96.4304 21.4275L96.5912 21.2663L96.7937 21.0668L96.9961 20.9465L97.2014 20.788L97.4038 20.6678L97.6063 20.5065L97.8504 20.3863L98.0916 20.307L98.3357 20.1867L98.5798 20.1075L98.8627 20.0282L99.3924 19.867L99.9193 19.7467L100.488 19.6675L101.054 19.6265H101.664H102.232L102.798 19.6675L103.367 19.7467L103.935 19.867L104.504 19.9872L104.989 20.1457L105.516 20.307L105.963 20.5065L106.207 20.6268L106.409 20.747L106.612 20.8673L106.817 21.0258L107.019 21.146L107.18 21.3073L107.344 21.4275L107.505 21.5861L107.668 21.7473L107.79 21.9058L107.912 22.1053L107.951 22.1873L107.993 22.2666L108.073 22.3458L108.115 22.4661L108.154 22.5454V22.6246L108.195 22.7449L108.237 22.8269V22.9061L108.276 23.0264V23.1056L108.317 23.2259V23.3461V23.4254V26.0655H103.408L103.447 24.945V24.7045L103.408 24.464V24.3437V24.2644L103.367 24.1442L103.328 24.0649V24.0239V23.9857L103.286 23.9447V23.8654L103.245 23.8244L103.206 23.7862V23.7452H103.164L103.123 23.7042V23.6659L103.084 23.6249L103.042 23.5866L103.003 23.5456H102.962L102.92 23.5047L102.881 23.4664H102.798L102.759 23.4254L102.718 23.3844H102.676L102.596 23.3461H102.557L102.393 23.3051L102.271 23.2669H102.11H101.947H101.786H101.703H101.622H101.583L101.5 23.3051H101.42L101.339 23.3461L101.256 23.3844L101.217 23.4254H101.137L101.054 23.5047L100.973 23.5456L100.932 23.5866L100.851 23.6249L100.812 23.7042L100.729 23.7862L100.69 23.8244L100.649 23.8654L100.607 23.9064V23.9447L100.568 23.9857V24.0239L100.527 24.0649V24.1059L100.488 24.1442V24.2262V24.2644L100.446 24.3054V24.3437V24.3847V24.464V24.5049L100.405 24.5459V24.6252V24.6662L100.446 24.7455V24.7837V24.904L100.488 25.0242L100.527 25.1855L100.568 25.3057L100.607 25.4233L100.69 25.5845L100.812 25.743L100.973 25.9043L101.137 26.0655L101.256 26.224L101.583 26.5028L101.908 26.7433L102.232 26.9838L102.596 27.1833L102.962 27.3828L103.286 27.5441L104.706 28.1836L105.436 28.5034L105.76 28.6619L106.085 28.8642L106.409 29.0227L106.695 29.2222L106.856 29.3424L107.019 29.4627L107.141 29.5829L107.263 29.7032L107.383 29.8234L107.546 29.982L107.627 30.1432L107.749 30.2635L107.871 30.422L107.993 30.6215L108.073 30.7827L108.154 30.9823L108.237 31.1818L108.317 31.3813L108.398 31.5808L108.478 31.8213L108.52 32.0618L108.561 32.3023L108.642 32.5401V32.8216L108.722 33.3819V34.0214L108.683 34.6992L108.642 35.459L108.6 35.7405L108.561 35.9783L108.478 36.2598L108.398 36.5003L108.276 36.7381L108.154 36.9786L108.032 37.2191L107.871 37.4186L107.707 37.6181L107.546 37.8176L107.344 38.0171L107.141 38.2194L106.936 38.3779L106.734 38.5391L106.492 38.6976L106.248 38.8179L106.004 38.9381L105.76 39.0967L105.477 39.1787L105.233 39.2989L104.95 39.4164L104.665 39.4984L104.057 39.6569L103.447 39.7362L102.84 39.8182L102.232 39.8974H101.622L100.973 39.8565L100.366 39.8182L99.7557 39.7362L99.1872 39.6187L98.6214 39.4574L98.0528 39.2579L97.8088 39.1377L97.5259 39.0174L97.2818 38.8972L97.0793 38.7769L96.8353 38.6594L96.6328 38.4981L96.4304 38.3369L96.2279 38.1784L96.0227 38.0171L95.8618 37.8176L95.6982 37.6591L95.5761 37.4596L95.4153 37.2601L95.3737 37.1398L95.2932 37.0196L95.2516 36.9376L95.2128 36.82L95.1712 36.6998L95.1324 36.5795L95.0908 36.4593L95.0492 36.339V36.2188L95.0103 36.0985V35.9783L94.9688 35.8607V35.7405V35.6202Z" fill="#074CA1"/>
<path d="M35.6119 19.5884L34.802 19.6676L34.031 19.7469L33.6649 19.8262L33.3404 19.9081L33.0159 19.9874L32.6914 20.0667L32.4086 20.1869L32.1229 20.3072L31.84 20.4274L31.5959 20.5477L31.3519 20.6679L31.1494 20.8264L30.947 20.9877L30.7445 21.1462L30.5836 21.3075L30.3784 21.466L30.2564 21.6655L30.0955 21.8267L29.9735 22.0263L29.8514 22.2258L29.7294 22.4253L29.649 22.6248L29.527 22.827L29.4465 23.0265L29.4049 23.2261L29.3245 23.4666L29.2829 23.6661L29.2441 23.8656L29.2025 24.1061V24.3056L29.1636 24.7456V25.1856L29.2025 25.6257L29.2441 26.0657L29.3245 26.4647L29.4465 26.8637L29.5686 27.2628L29.6906 27.6235L29.8126 27.9843L29.9735 28.3041L30.1371 28.6238L30.298 28.9026L30.4616 29.1431L30.542 29.2633L30.6225 29.3426L30.7029 29.4219L30.7861 29.5039L30.8665 29.5831L30.9081 29.6214H30.947L31.4739 30.0614L31.962 30.4222L32.489 30.7419L32.9771 31.0207L33.909 31.5017L34.7604 31.9007L35.5314 32.2615L35.8559 32.461L36.1804 32.6223L36.3441 32.7398L36.4661 32.8218L36.5881 32.942L36.7074 33.0623L36.8294 33.1798L36.871 33.2208L36.9126 33.3001L36.9514 33.3411L36.993 33.4203L37.0319 33.4996L37.0735 33.5816L37.1539 33.7018L37.2371 33.8603L37.2759 34.0216L37.3175 34.1391L37.3564 34.2594V34.4206L37.398 34.5409V34.6611V34.7814L37.3564 34.8989V35.0191L37.3175 35.1011L37.2759 35.2187L37.2371 35.3006L37.1955 35.4209L37.1539 35.5002L37.1151 35.5794L37.0319 35.6587L36.9514 35.7407L36.9126 35.8199L36.8294 35.8609L36.749 35.9402L36.6686 35.9784L36.627 36.0194L36.5465 36.0604L36.4661 36.0987L36.3829 36.1397L36.3025 36.1807H36.2636H36.222H36.1804H36.1416H36.1H36.0584H36.0196H35.978H35.8171H35.6535L35.4926 36.1397L35.3706 36.0987H35.2874L35.2486 36.0604L35.1681 36.0194H35.1265L35.0461 35.9784L35.0045 35.9402H34.9629L34.9241 35.8992L34.8825 35.8609L34.8436 35.8199L34.802 35.7789L34.7604 35.7407L34.7216 35.6997L34.68 35.6587L34.6384 35.6204V35.5794L34.5996 35.5384L34.558 35.5002V35.4592L34.5164 35.4209V35.3389L34.4775 35.3006L34.4359 35.2187V35.1011L34.3971 34.9809V34.8606L34.3555 34.7404V34.4999V34.2211L34.3971 33.1005H29V35.6204V35.7407V35.8609L29.0416 35.9784V36.0987L29.0804 36.2189V36.3392L29.122 36.4595L29.1636 36.5797L29.2025 36.7L29.2441 36.8202L29.2829 36.9377L29.3661 37.0197L29.4049 37.14L29.4465 37.2602L29.6074 37.4598L29.7294 37.6593L29.893 37.8178L30.0539 38.0173L30.2564 38.1785L30.4616 38.3371L30.6641 38.4983L30.8665 38.6596L31.1106 38.7771L31.3519 38.8973L31.5959 39.0176L31.84 39.1378L32.0841 39.2581L32.6526 39.4576L33.2184 39.6189L33.787 39.7364L34.3971 39.8184L35.0461 39.8566L35.6535 39.8976H36.2636L36.9126 39.8184L37.52 39.7364L38.0886 39.6571L38.6959 39.4986L38.9816 39.4166L39.2645 39.2991L39.5086 39.1788L39.7914 39.0968L40.0355 38.9383L40.2796 38.8181L40.5236 38.6978L40.7649 38.5393L40.9674 38.378L41.2114 38.2195L41.3751 38.0173L41.5775 37.8178L41.7384 37.6183L41.902 37.4187L42.0629 37.2192L42.1849 36.9787L42.307 36.7382L42.429 36.5005L42.5094 36.2599L42.5926 35.9784L42.6314 35.7407L42.673 35.4592L42.7119 34.6994L42.7535 34.0216V33.382L42.7119 32.8218L42.673 32.5403L42.6314 32.3025L42.551 32.062L42.5094 31.8215L42.429 31.581L42.3874 31.3815L42.307 31.182L42.1849 30.9824L42.1045 30.7829L42.0241 30.6217L41.902 30.4222L41.78 30.2636L41.6996 30.1434L41.5775 29.9821L41.4555 29.8236L41.2919 29.7034L41.1726 29.5831L41.0506 29.4629L40.887 29.3426L40.7649 29.2224L40.4404 29.0228L40.1159 28.8643L39.7914 28.6621L39.467 28.5036L38.7764 28.1838L37.3175 27.5443L36.993 27.383L36.627 27.1835L36.3025 26.984L35.9364 26.7435L35.6119 26.503L35.329 26.2242L35.1681 26.0657L35.0045 25.9044L34.8825 25.7432L34.7216 25.5847L34.6384 25.4234L34.5996 25.3059L34.558 25.1856L34.5164 25.0244L34.4775 24.9041V24.7839V24.7456V24.6664V24.6254V24.5461V24.5051V24.4641V24.3849V24.3439V24.3056L34.5164 24.2646V24.2264L34.558 24.1444V24.1061V24.0651L34.5996 24.0241V23.9858L34.6384 23.9449L34.68 23.9066V23.8656L34.7216 23.8246L34.7604 23.7863L34.8436 23.7043L34.8825 23.6251L34.9629 23.5868L35.0461 23.5458L35.0849 23.5048L35.1681 23.4256H35.2486L35.329 23.3846L35.3706 23.3463L35.451 23.3053H35.5314L35.6119 23.2671H35.6951H35.7339H35.8171H35.978H36.1416H36.3025L36.4661 23.3053L36.5881 23.3463H36.627L36.7074 23.3846H36.749L36.7906 23.4256L36.871 23.4666H36.9126L36.9514 23.5048L36.993 23.5458H37.0319L37.0735 23.5868L37.1151 23.6251L37.1539 23.6661V23.7043L37.1955 23.7453H37.2371L37.2759 23.7863V23.8246L37.3175 23.8656V23.9449L37.3564 23.9858V24.0241L37.398 24.0651V24.1444L37.4396 24.2646V24.3439L37.4784 24.4641V24.7046V24.9451L37.4396 26.0657H42.3486V23.4256V23.3053V23.1468L42.307 23.0265V22.8653L42.2681 22.745L42.2265 22.6248L42.1849 22.5073V22.387L42.1045 22.2668L42.0629 22.1465L42.0241 22.0673L41.9436 21.947L41.902 21.8267L41.8216 21.7475L41.7384 21.6272L41.6996 21.5452L41.6164 21.466L41.5359 21.3867L41.4139 21.2665L41.3335 21.1872L41.1726 21.026L40.9674 20.8674L40.7261 20.7472L40.5236 20.6269L40.2796 20.5067L40.0355 20.3864L39.7914 20.2662L39.5086 20.1869L38.9816 20.0284L38.413 19.9081L37.8861 19.7879L37.2759 19.7086L36.7074 19.6676L35.6119 19.5884Z" fill="#074CA1"/>
<path d="M164.874 40.578L165.484 40.6163L166.092 40.578L166.619 40.5371L167.107 40.4961L167.553 40.4168L167.958 40.2965L168.161 40.2583L168.363 40.1763L168.527 40.138L168.688 40.0588L168.851 39.9768L169.012 39.8975L169.176 39.8183L169.298 39.7363L169.459 39.657L169.581 39.5368L169.703 39.4575L169.783 39.3373L169.905 39.258L169.986 39.1377L170.108 39.0175L170.188 38.8972L170.271 38.818L170.352 38.6977L170.432 38.5775L170.474 38.4572L170.554 38.337L170.596 38.2194L170.676 37.9379L170.757 37.6974L170.837 37.4597L170.879 37.1781L170.92 36.9376L170.959 36.6589L171.001 36.4184V35.8991V35.4208V34.579V29.4218H164.63V32.1821H165.928V35.4208V35.5001V35.5793V35.6203L165.889 35.6996V35.7788V35.8198L165.848 35.8991L165.809 35.9401V36.0193L165.767 36.0603L165.726 36.1396L165.687 36.1806L165.645 36.2598L165.604 36.2981L165.565 36.3391L165.523 36.3801L165.484 36.4184L165.443 36.4594L165.362 36.5004L165.321 36.5386L165.279 36.5796L165.199 36.6179L165.157 36.6589L165.077 36.6999H165.038L164.955 36.7381H164.916L164.832 36.7791H164.752H164.672H164.63H164.55H164.469H164.389H164.347H164.267L164.184 36.7381H164.145L164.064 36.6999H164.023L163.942 36.6589L163.901 36.6179L163.82 36.5796L163.779 36.5386L163.737 36.5004L163.657 36.4594L163.618 36.4184L163.576 36.3801L163.535 36.3391L163.496 36.2981L163.454 36.2598L163.413 36.1806L163.374 36.1396L163.332 36.0603L163.293 36.0193V35.9401L163.252 35.8991L163.21 35.8198V35.7788V35.6996L163.171 35.6203V35.5793V35.5001V35.4208V24.8248V24.7838V24.7045V24.6253L163.21 24.546V24.505V24.4258L163.252 24.3848L163.293 24.3055V24.2645L163.332 24.1853L163.374 24.1443L163.413 24.065L163.454 24.024L163.496 23.9857L163.535 23.9065L163.576 23.8655L163.618 23.8245L163.657 23.7862L163.737 23.7452L163.779 23.7042L163.82 23.666L163.901 23.625H163.942L164.023 23.5867L164.064 23.5457H164.145L164.184 23.5047H164.267H164.347L164.389 23.4665H164.469H164.55H164.63H164.672L164.752 23.5047H164.832H164.916L164.955 23.5457H165.038L165.077 23.5867L165.157 23.625H165.199L165.279 23.666L165.321 23.7042L165.362 23.7452L165.443 23.7862L165.484 23.8245L165.523 23.8655L165.565 23.9065L165.604 23.9857L165.645 24.024L165.687 24.065L165.726 24.1443L165.767 24.1853L165.809 24.2645V24.3055L165.848 24.3848L165.889 24.4258V24.505V24.546L165.928 24.6253V24.7045V24.7838V24.8248V26.5849H171.001V24.4258L170.959 24.1443V24.024V23.8655L170.92 23.7452V23.625L170.879 23.5047L170.837 23.3845L170.798 23.267L170.757 23.1467L170.718 23.0264L170.676 22.9062L170.596 22.7859L170.554 22.7067L170.432 22.4662L170.271 22.2667L170.149 22.0672L169.947 21.9059L169.783 21.7064L169.581 21.5451L169.378 21.3866L169.176 21.2254L168.973 21.1078L168.729 20.9466L168.485 20.8263L168.241 20.7061L167.958 20.5858L167.714 20.5066L167.431 20.4273L166.863 20.2661L166.294 20.1458L165.687 20.0283L165.077 19.9873H164.469H163.859L163.293 20.0283L162.683 20.1076L162.115 20.2278L161.549 20.3863L161.263 20.4683L161.019 20.5858L160.736 20.6678L160.492 20.7881L160.248 20.9056L160.007 21.0669L159.804 21.1871L159.599 21.3456L159.397 21.5069L159.194 21.6654L158.992 21.8676L158.828 22.0262L158.709 22.2257L158.545 22.4252L158.423 22.6247L158.384 22.7449L158.301 22.8652L158.262 22.9445L158.221 23.0647L158.179 23.185L158.14 23.3052L158.099 23.4255L158.057 23.5457V23.666L158.018 23.8245V23.9448V24.065L157.977 24.3438V36.2598V36.4184L158.018 36.6179V36.7791V36.9376L158.057 37.0989L158.099 37.2601L158.14 37.4186L158.179 37.5799L158.221 37.6974L158.262 37.8587L158.343 37.9789L158.384 38.0992L158.465 38.2194L158.545 38.337L158.587 38.4572L158.667 38.5775L158.789 38.6977L158.87 38.818L158.95 38.8972L159.033 39.0175L159.152 39.0967L159.236 39.1787L159.477 39.3782L159.682 39.5368L159.924 39.657L160.168 39.7773L160.453 39.8975L160.695 40.0178L160.98 40.138L161.263 40.2173L161.549 40.2965L162.115 40.4168L162.683 40.4961L163.293 40.578H163.859L164.389 40.6163L164.874 40.578Z" fill="#074CA1"/>
</g>
<defs>
<clipPath id="clip0_637_976">
<rect width="142" height="21" fill="white" transform="translate(29 20)"/>
</clipPath>
</defs>
</svg>
