<svg width="200" height="60" viewBox="0 0 200 60" fill="none" xmlns="http://www.w3.org/2000/svg">
<g clip-path="url(#clip0_637_973)">
<path d="M49.029 11.3288C49.295 11.3288 49.428 11.4617 49.694 11.5946C48.098 12.2589 46.502 13.9862 45.704 17.7065L42.778 18.5037C43.709 15.8463 45.571 11.3288 49.029 11.3288ZM50.492 12.6575C50.758 13.4547 51.024 14.3848 51.024 15.8463C51.024 15.9792 51.024 15.9792 51.024 16.1121L47.167 17.175C47.965 14.3848 49.295 13.189 50.492 12.6575ZM53.95 15.0491L52.221 15.5806C52.221 15.4477 52.221 15.3149 52.221 15.182C52.221 13.9862 52.088 13.0561 51.822 12.2589C52.753 12.5246 53.551 13.7204 53.95 15.0491ZM62.595 17.175C62.595 17.0421 62.462 16.9093 62.329 16.9093C62.063 16.9093 59.27 16.6435 59.27 16.6435C59.27 16.6435 57.275 14.6505 57.009 14.5177C56.743 14.2519 56.344 14.3848 56.211 14.3848C56.211 14.3848 55.812 14.5177 55.147 14.7834C54.482 12.9232 53.285 11.196 51.29 11.196H51.157C50.625 10.3988 49.827 10.133 49.162 10.133C44.374 10.0002 42.113 15.9792 41.315 19.0351C40.251 19.3009 39.187 19.6995 37.99 20.0981C36.926 20.3638 36.926 20.4967 36.793 21.4267C36.66 22.0911 34 43.0841 34 43.0841L55.147 47.0701L66.585 44.5456C66.585 44.5456 62.595 17.4407 62.595 17.175Z" fill="#8DB849"/>
<path d="M62.1965 16.9092C62.0635 16.9092 59.2705 16.6435 59.2705 16.6435C59.2705 16.6435 57.2755 14.6505 57.0095 14.5176C56.8765 14.3848 56.8765 14.3848 56.7435 14.3848L55.1475 47.0701L66.5855 44.5456C66.5855 44.5456 62.5955 17.4407 62.5955 17.175C62.5955 17.0421 62.3295 16.9092 62.1965 16.9092Z" fill="#5A863E"/>
<path d="M51.2899 23.2868L49.8269 27.5386C49.8269 27.5386 48.6299 26.8742 47.0339 26.8742C44.7729 26.8742 44.6399 28.2029 44.6399 28.6015C44.6399 30.4617 49.6939 31.2589 49.6939 35.7763C49.6939 39.3638 47.4329 41.6225 44.3739 41.6225C40.7829 41.6225 38.9209 39.3638 38.9209 39.3638L39.8519 36.1749C39.8519 36.1749 41.7139 37.7693 43.3099 37.7693C44.3739 37.7693 44.7729 36.9721 44.7729 36.3078C44.7729 33.7833 40.6499 33.6505 40.6499 29.5316C40.6499 26.077 43.1769 22.7554 48.0979 22.7554C50.3589 22.6225 51.2899 23.2868 51.2899 23.2868Z" fill="#FFFFFE"/>
<path d="M80.0183 31.1263C78.8213 30.462 78.2893 29.9305 78.2893 29.2661C78.2893 28.3361 79.0873 27.8046 80.4173 27.8046C81.8803 27.8046 83.2103 28.4689 83.2103 28.4689L84.2743 25.2801C84.2743 25.2801 83.3433 24.4829 80.5503 24.4829C76.5603 24.4829 73.9003 26.7417 73.9003 29.9305C73.9003 31.7906 75.2303 33.1193 76.8263 34.0494C78.1563 34.8466 78.6883 35.378 78.6883 36.1752C78.6883 36.9724 78.0233 37.7696 76.6933 37.7696C74.8313 37.7696 72.9693 36.8396 72.9693 36.8396L71.9053 40.0284C71.9053 40.0284 73.5013 41.0913 76.2943 41.0913C80.2843 41.0913 83.2103 39.0983 83.2103 35.5109C83.2103 33.5179 81.7473 32.0564 80.0183 31.1263ZM96.1113 24.3501C94.1163 24.3501 92.5203 25.2801 91.3233 26.7417L93.0523 17.7067H88.5303L84.1413 40.6927H88.6633L90.1263 32.8536C90.6583 29.9305 92.2543 28.0703 93.7173 28.0703C94.7813 28.0703 95.1803 28.7347 95.1803 29.7976C95.1803 30.462 95.1803 31.1263 95.0473 31.7906L93.3183 40.8256H97.8403L99.5693 31.5249C99.7023 30.5948 99.8353 29.399 99.8353 28.6018C99.8353 25.9445 98.5053 24.3501 96.1113 24.3501ZM107.682 37.5039C106.086 37.5039 105.554 36.1752 105.554 34.5808C105.554 32.0564 106.884 27.8046 109.278 27.8046C110.874 27.8046 111.406 29.1333 111.406 30.462C111.406 33.385 110.076 37.5039 107.682 37.5039ZM109.943 24.3501C104.49 24.3501 100.899 29.2661 100.899 34.7137C100.899 38.1682 103.027 40.9585 107.15 40.9585C112.47 40.9585 116.061 36.1752 116.061 30.5948C116.061 27.406 114.199 24.3501 109.943 24.3501ZM123.243 37.6368C122.046 37.6368 121.381 36.9724 121.381 36.9724L122.179 32.7207C122.711 29.9305 124.174 28.0703 125.77 28.0703C127.1 28.0703 127.632 29.399 127.632 30.5948C127.499 33.5179 125.77 37.6368 123.243 37.6368ZM127.632 24.3501C124.573 24.3501 122.844 27.0074 122.844 27.0074L123.11 24.6158H119.12C118.987 26.2102 118.588 28.7347 118.189 30.5948L114.997 47.0703H119.519L120.716 40.427H120.849C120.849 40.427 121.78 40.9585 123.509 40.9585C128.829 40.9585 132.287 35.5109 132.287 30.0634C132.287 27.1403 130.957 24.3501 127.632 24.3501ZM138.671 17.9724C137.208 17.9724 136.144 19.1682 136.144 20.6298C136.144 21.9585 136.942 22.8885 138.272 22.8885C139.735 22.8885 140.932 21.9585 140.932 20.2312C140.932 18.9025 140.001 17.9724 138.671 17.9724ZM132.42 40.6927H136.942L140.001 24.7487H135.479L132.42 40.6927ZM151.439 24.7487H148.247L148.38 23.9515C148.646 22.3571 149.577 21.0284 151.04 21.0284C151.838 21.0284 152.503 21.2941 152.503 21.2941L153.434 17.7067C153.434 17.7067 152.636 17.3081 151.04 17.3081C149.444 17.3081 147.848 17.7067 146.651 18.7696C145.055 20.0983 144.39 21.9585 143.991 23.8186L143.858 24.6158H141.73L141.065 28.0703H143.193L140.799 40.6927H145.321L147.715 28.0703H150.774L151.439 24.7487ZM162.212 24.7487C162.212 24.7487 159.419 31.7906 158.089 35.6438C157.956 34.448 157.025 24.7487 157.025 24.7487H152.237L154.897 39.364C154.897 39.6298 154.897 39.8955 154.764 40.1613C154.232 41.2242 153.301 42.1543 152.37 42.8186C151.572 43.4829 150.508 43.8815 149.843 44.1473L151.04 48.0004C151.971 47.8675 153.833 47.0703 155.429 45.6088C157.424 43.7487 159.419 40.6927 161.281 36.7067L166.734 24.8815L162.212 24.7487Z" fill="#1A1919"/>
</g>
<defs>
<clipPath id="clip0_637_973">
<rect width="133" height="38" fill="white" transform="translate(34 10)"/>
</clipPath>
</defs>
</svg>
